# xmcd CD database file
#
# Track frame offsets:
#	150
#	14585
#	35252
#	59832
#	83310
#	101572
#	116380
#	153795
#	173057
#	196925
#	220787
#	247247
#	264655
#	288925
#
# Disc length: 4028 seconds
#
# Revision: 2
# Processed by: cddbd v1.5.2PL0 Copyright (c) Steve Scherf et al.
# Submitted via: Feurio! 1.50.2ß - http://www.feurio.com
#
DISCID=ba0fba0e
DTITLE=Afroromantics - Neues Projekt
DYEAR=1900
DGENRE=Country
TTITLE0=Tshisungu Kalomba - Safi
TTITLE1=Safari Sound Band - Naku Penda Wewe
TTITLE2=Safari Sound Band - Mpenzi
TTITLE3=Shadz o´Blak - Pamoja Kwa Upendo
TTITLE4=Harstone - Ebony Lady
TTITLE5=Tshisugungu Kalomba - Ngala Baba
TTITLE6=Bilenge - Wazazi Wangu
TTITLE7=Hart - Lonely
TTITLE8=Hart - Touch
TTITLE9=Safari Sound Band - Binti
TTITLE10=Safari Sound Band - Nilikupenda Sana
TTITLE11=Tshisungu Kalomba - Munanga
TTITLE12=Safari Sound Band - Mombasa Moon
TTITLE13=Safari Sound Band - Malaika
EXTD=
EXTT0=
EXTT1=
EXTT2=
EXTT3=
EXTT4=
EXTT5=
EXTT6=
EXTT7=
EXTT8=
EXTT9=
EXTT10=
EXTT11=
EXTT12=
EXTT13=
PLAYORDER=
